<svg role="img" xmlns="http://www.w3.org/2000/svg" viewBox="0 0 600 600" width="24" height="24"><title>pixiv</title><path d="M0 0h600v600H0Z" fill="#0096fa"/><path d="M313.164 371.503c-44.48 0-80.54-36.06-80.54-80.54s36.06-80.54 80.54-80.54 80.54 36.059 80.54 80.54c0 44.48-36.06 80.54-80.54 80.54M158.83 472.976a9.217 9.217 0 0 0 9.218 9.216h55.357a9.217 9.217 0 0 0 9.218-9.216v-50.351c23.448 14.373 51.023 22.671 80.541 22.671 85.236 0 154.334-69.097 154.334-154.334 0-85.236-69.098-154.333-154.334-154.333-36.26 0-69.572 12.537-95.913 33.469l-18.803-29.238a9.22 9.22 0 0 0-7.753-4.231h-22.647a9.22 9.22 0 0 0-9.218 9.218z" fill="#fff"/></svg>